PathFileType	4	(X/Y/Z)	C:\Users\Basilio\Documents\Thesis Gigler\squatting_fais\c3dfiles\047\SLS_pre_front3\markers_experimental.trc
DataRate	CameraRate	NumFrames	NumMarkers	Units	OrigDataRate	OrigDataStartFrame	OrigNumFrames
200.000000	200.000000	4	60	mm	200.000000	1005	1340
Frame#	Time	FHD			LBHD			RBHD			C7			T10			CLAV			LSHO			LUUPA			LMUPA			LDUPA			LLEP			LMEP			LRAD			LUL			LRFIN			RSHO			RUPA1			RMUPA			RDUPA			RLEP			RMEP			RRAD			RUL			RUFIN			LASI			RASI			USACR			LSACR			RSACR			LTHI1			LTHI2			LTHI3			LTHI4			LLFC			LMFC			LTIB1			LTIB2			LTIB3			LTIB4			LLMAL			LMMAL			LMT1			LMT2			LMT5			RTHI			RTHI2			RTHI3			RTHI4			RLFC			RMFC			RTIB1			RTIB2			RTIB3			RTIB4			RLMAL			RMMAL			RHEE			RMT1			RMT2			RMT5			
		X1	Y1	Z1	X2	Y2	Z2	X3	Y3	Z3	X4	Y4	Z4	X5	Y5	Z5	X6	Y6	Z6	X7	Y7	Z7	X8	Y8	Z8	X9	Y9	Z9	X10	Y10	Z10	X11	Y11	Z11	X12	Y12	Z12	X13	Y13	Z13	X14	Y14	Z14	X15	Y15	Z15	X16	Y16	Z16	X17	Y17	Z17	X18	Y18	Z18	X19	Y19	Z19	X20	Y20	Z20	X21	Y21	Z21	X22	Y22	Z22	X23	Y23	Z23	X24	Y24	Z24	X25	Y25	Z25	X26	Y26	Z26	X27	Y27	Z27	X28	Y28	Z28	X29	Y29	Z29	X30	Y30	Z30	X31	Y31	Z31	X32	Y32	Z32	X33	Y33	Z33	X34	Y34	Z34	X35	Y35	Z35	X36	Y36	Z36	X37	Y37	Z37	X38	Y38	Z38	X39	Y39	Z39	X40	Y40	Z40	X41	Y41	Z41	X42	Y42	Z42	X43	Y43	Z43	X44	Y44	Z44	X45	Y45	Z45	X46	Y46	Z46	X47	Y47	Z47	X48	Y48	Z48	X49	Y49	Z49	X50	Y50	Z50	X51	Y51	Z51	X52	Y52	Z52	X53	Y53	Z53	X54	Y54	Z54	X55	Y55	Z55	X56	Y56	Z56	X57	Y57	Z57	X58	Y58	Z58	X59	Y59	Z59	X60	Y60	Z60	

1006	5.025	-131.4623260498047	1616.383911132813	-1075.00732421875	-305.9215393066407	1569.491088867188	-1104.845947265625	-286.3470764160157	1571.4716796875	-957.250427246094	-329.5989379882813	1406.633544921875	-1031.531372070313	-419.2760620117189	1121.052734375	-996.2368774414065	-187.5920562744141	1333.032958984375	-1061.18603515625	-268.9355773925782	1381.328369140625	-1196.588623046875	-202.5791625976563	1313.193481445313	-1337.224853515625	-174.064193725586	1353.850952148438	-1333.617431640625	-142.4127655029297	1319.763671875	-1371.326293945313	-84.25289154052736	1339.312744140625	-1398.07958984375	-50.85106658935548	1278.725830078125	-1357.703979492188	186.646728515625	1349.2275390625	-1430.94189453125	155.7340240478516	1364.914916992188	-1503.605224609375	253.1431884765626	1380.98291015625	-1464.687622070313	-216.7889709472657	1393.437377929688	-914.6045532226565	-89.04846954345705	1334.109130859375	-804.1669921875002	-62.50951385498048	1368.797729492188	-827.1306762695315	-19.48083114624024	1332.255615234375	-805.0718383789065	47.63169097900391	1346.883666992188	-813.6074829101565	55.8070411682129	1280.310913085938	-860.7901611328127	308.9942626953126	1349.138549804688	-885.5544433593752	304.4364624023438	1363.273681640625	-812.1365966796877	387.339324951172	1373.34130859375	-874.9800415039065	-315.1697387695313	866.9109497070315	-1084.09130859375	-288.6715698242188	900.581481933594	-862.8848266601565	-471.3058471679689	984.2839355468752	-973.9172973632815	-485.4434509277345	952.874938964844	-998.1976318359377	-479.0006713867189	957.0827636718752	-940.8735351562502	-351.3151855468751	725.9747314453126	-1156.379760742188	-278.0645751953126	683.6010742187501	-1162.793334960938	-239.6290588378907	712.2402343750001	-1152.618774414063	-270.1806945800782	623.3287963867189	-1163.77294921875	-192.4813079833985	476.9141540527345	-1136.506713867188	-149.1029510498047	483.8900756835939	-1017.370910644531	-196.7729797363282	309.9985961914063	-1024.232299804688	-217.2203521728516	262.7507629394532	-1094.60400390625	-205.8423309326172	257.7333374023438	-1048.089965820313	-247.5712585449219	195.6772460937501	-1011.065673828125	-328.3157653808594	115.372543334961	-1052.08740234375	-304.8024902343751	137.0506744384766	-964.8131103515627	-190.9740447998047	62.12025833129884	-978.251403808594	-189.0352325439453	59.89429855346681	-1022.968627929688	-237.394271850586	44.84522247314454	-1068.313110351563	-292.4103393554688	748.3365478515626	-760.0975952148439	-227.9058227539063	734.4973754882814	-770.7075195312502	-207.4107513427735	755.8427734375001	-782.8240356445315	-192.8890686035157	658.6293945312501	-774.3657226562502	-89.42391204833986	558.5260009765626	-804.2837524414065	-84.7562942504883	559.6931152343751	-927.443542480469	12.23546981811524	475.6546936035157	-834.248718261719	16.93058776855469	376.4402160644532	-787.4185791015627	48.69002532958986	399.687469482422	-812.398132324219	78.08946228027345	364.5190124511719	-849.0358886718752	118.7251663208008	209.6427612304688	-814.313659667969	116.9909286499024	226.4618377685547	-904.6880493164065	75.4972381591797	149.642333984375	-854.4998779296877	266.8836669921876	219.1618347167969	-914.9500732421877	274.0938110351563	230.7747650146485	-871.4615478515627	253.415756225586	192.9157714843751	-808.0803833007815	
1007	5.03	-132.369369506836	1618.19287109375	-1074.527465820313	-307.1805419921876	1571.463989257813	-1104.598999023438	-287.4794311523438	1573.199584960938	-956.902282714844	-330.0178527832032	1408.37060546875	-1031.500732421875	-419.0307922363282	1122.490234375	-996.1127929687502	-188.1103515625	1334.959838867188	-1060.947387695313	-269.5912780761719	1382.995483398438	-1196.509155273438	-203.298324584961	1315.006469726563	-1337.153442382813	-174.63427734375	1355.681396484375	-1333.599243164063	-142.9970703125	1321.943237304688	-1371.2265625	-85.51514434814455	1341.678466796875	-1398.003295898438	-51.02769851684572	1280.885375976563	-1357.14794921875	185.928207397461	1351.828369140625	-1431.220825195313	155.0254058837891	1367.418823242188	-1503.738647460938	252.4164428710938	1383.548706054688	-1464.912353515625	-217.4794921875001	1395.229736328125	-914.5325317382815	-89.53330230712892	1335.988403320313	-804.006042480469	-63.30828857421876	1370.953857421875	-827.0751953125002	-20.22768020629883	1334.32763671875	-804.5910644531252	47.20140838623048	1348.992065429688	-813.4628906250002	55.49090957641603	1282.320678710938	-860.6343383789065	308.5322570800782	1351.704956054688	-885.3215332031252	303.9571533203126	1365.706787109375	-812.000183105469	386.9008789062501	1376.274291992188	-875.2422485351565	-314.8520812988282	868.2065429687502	-1083.912475585938	-288.4761962890626	902.014343261719	-862.303161621094	-470.8605957031251	985.7863769531252	-973.8944091796877	-484.849822998047	953.9696044921877	-998.4292602539065	-478.3120727539064	958.2856445312502	-940.9239501953127	-351.0993652343751	727.1608886718751	-1156.311157226563	-278.0525207519532	684.6328735351564	-1162.638305664063	-239.4349822998047	713.1737060546876	-1152.597778320313	-270.5445556640626	624.2771606445314	-1163.487426757813	-193.8125762939454	477.8216857910157	-1136.121337890625	-149.9795074462891	484.3600158691407	-1017.166259765625	-197.264633178711	310.4619445800782	-1024.191040039063	-221.6222839355469	261.4397888183594	-1092.8134765625	-206.3249511718751	258.1151733398438	-1047.919677734375	-247.9062805175782	195.8858337402344	-1010.979187011719	-328.5232543945313	115.4604187011719	-1052.017333984375	-305.0651245117188	136.9463195800782	-964.735290527344	-190.9412231445313	62.1278762817383	-978.2285156250002	-189.0557708740235	59.87672424316408	-1022.964660644531	-237.1279296875001	45.14262771606446	-1068.618896484375	-292.3661804199219	749.7830200195314	-759.7075195312501	-227.2975463867188	735.7246093750001	-769.8511962890627	-207.1252899169922	757.1121215820314	-782.500671386719	-192.8159484863282	659.8035888671876	-774.1831665039065	-89.2374954223633	559.8590087890626	-804.1931762695315	-84.79794311523439	560.9240722656251	-927.0842285156252	12.06601905822754	477.0929565429689	-834.8470458984377	16.89496994018555	377.5168762207032	-787.3427734375002	48.70885848999025	401.0876770019532	-812.3560180664065	78.11092376708986	365.5750122070313	-848.6692504882815	118.7600250244141	210.7717437744141	-813.8387451171877	116.8202667236328	227.3509979248047	-904.3206176757815	75.70410156250001	150.0921478271485	-854.5607910156252	266.7155761718751	220.0741882324219	-914.674255371094	274.0805664062501	231.4690551757813	-871.4183349609377	253.3021850585938	194.0923156738282	-807.9387207031252	
1008	5.035	-133.2796936035157	1620.410766601563	-1074.162353515625	-307.4077758789063	1572.874877929688	-1104.550415039063	-288.0898437500001	1574.889892578125	-956.9332275390627	-330.7323608398438	1409.966064453125	-1031.285522460938	-419.0543823242189	1123.811279296875	-996.0396118164065	-188.2592926025391	1336.92529296875	-1060.87060546875	-270.6096801757813	1384.800537109375	-1196.124389648438	-203.7656860351563	1316.890869140625	-1337.043579101563	-175.3158264160157	1357.596923828125	-1333.59716796875	-143.5885772705078	1323.741455078125	-1371.270263671875	-85.95546722412111	1343.702514648438	-1398.023681640625	-51.88151931762697	1282.934936523438	-1357.507202148438	185.0607147216797	1354.316162109375	-1431.373657226563	154.994140625	1369.670288085938	-1504.08349609375	252.0511169433594	1386.120483398438	-1465.13671875	-217.9687957763672	1396.98388671875	-914.359802246094	-90.08011627197267	1337.855102539063	-803.5567016601565	-63.23379516601564	1372.628295898438	-826.7888183593752	-20.85138893127442	1336.353393554688	-804.3251953125002	46.8521957397461	1350.85302734375	-813.3970947265627	55.34540176391603	1284.509399414063	-860.8060302734377	302.3488769531251	1353.325927734375	-879.267028808594	303.5420532226563	1368.406372070313	-811.806091308594	386.6080322265626	1378.611572265625	-875.2669677734377	-314.3205566406251	869.947204589844	-1083.940673828125	-288.1292724609376	903.4915161132815	-862.654479980469	-470.5259399414064	987.1856689453127	-973.8953857421877	-484.6426696777345	955.7141113281252	-998.2880859375002	-478.2568969726564	960.0200805664065	-940.811950683594	-350.8335266113282	728.4540405273439	-1156.27783203125	-278.1800537109376	685.5562133789064	-1162.427978515625	-239.3914489746094	713.9450683593751	-1152.456909179688	-270.8775939941407	625.3972167968751	-1163.275268554688	-194.5892181396485	478.1373291015626	-1135.987915039063	-151.045639038086	484.8392028808595	-1016.788879394531	-198.2119598388672	310.8890380859376	-1023.870910644531	-222.2191619873047	261.6035766601563	-1092.713745117188	-206.7984924316407	258.4845275878907	-1047.802124023438	-248.0966491699219	196.0896911621094	-1011.046630859375	-328.6327514648438	115.5219421386719	-1051.982543945313	-305.2042541503907	136.9285125732422	-964.6768798828127	-190.9319763183594	62.16646957397462	-978.2000122070315	-188.9674987792969	59.98487091064455	-1022.896423339844	-237.3561706542969	44.88212203979493	-1068.345825195313	-292.0404663085938	751.3347778320314	-759.6965332031251	-227.193588256836	737.4216918945314	-769.6378173828127	-206.7776184082032	758.4973754882814	-782.701599121094	-192.4981231689454	661.2295532226564	-774.085632324219	-89.1530227661133	561.1309814453126	-803.9675292968752	-84.79214477539064	562.2357788085939	-927.023864746094	12.21402168273926	478.1743469238282	-834.278259277344	16.98058128356934	378.9230041503907	-787.204772949219	48.80586624145509	402.050018310547	-812.3258056640627	77.82556915283205	366.7118835449219	-848.3988037109377	118.37451171875	211.8149108886719	-813.4151611328127	117.1911926269532	229.3817138671876	-904.2318115234377	75.11585235595705	151.9546051025391	-854.1235961914065	266.5869445800782	220.6955108642579	-914.5694580078127	273.8616333007813	232.2867736816407	-871.0673828125002	253.0782165527344	194.7362365722657	-808.126159667969	
1009	5.04	-133.8338317871094	1622.484741210938	-1074.002563476563	-308.0946350097657	1574.6953125	-1104.31396484375	-288.5048828125001	1576.834350585938	-957.232116699219	-331.5843200683594	1411.708984375	-1031.079956054688	-418.8358764648439	1125.432861328125	-995.911315917969	-188.5099029541016	1338.940673828125	-1061.005859375	-271.3245239257813	1386.697387695313	-1196.1220703125	-203.0744323730469	1318.110107421875	-1337.250610351563	-175.8046875	1359.471801757813	-1333.563842773438	-144.2397613525391	1325.697875976563	-1371.22607421875	-86.59110260009767	1345.778564453125	-1398.007202148438	-52.08564758300783	1285.388916015625	-1357.645874023438	184.6183013916016	1356.763916015625	-1431.411376953125	153.6705932617188	1372.397094726563	-1504.159423828125	251.321029663086	1388.941162109375	-1465.636474609375	-218.4070739746094	1398.749877929688	-914.1544189453127	-90.6033172607422	1339.824462890625	-803.299499511719	-63.94953536987306	1374.578735351563	-826.5219726562502	-21.05864143371582	1338.313842773438	-804.1162719726565	46.28388977050782	1353.096923828125	-812.985778808594	55.13450622558595	1286.769287109375	-861.0201416015627	302.2706909179688	1355.819702148438	-879.195007324219	303.1220703125001	1370.895751953125	-811.6588134765627	386.3841247558595	1381.368774414063	-875.1003417968752	-313.8635559082032	870.5742187500002	-1084.01513671875	-287.3750610351563	905.0354614257815	-862.6687011718752	-470.0722961425782	988.6508789062502	-973.989685058594	-484.1905212402345	957.2671508789065	-998.3504028320315	-477.8468322753907	961.147888183594	-940.8012695312502	-350.7145996093751	729.7796020507814	-1156.09033203125	-278.1530456542969	686.4252929687501	-1162.287231445313	-239.4251861572266	714.5527343750001	-1152.145629882813	-271.2644042968751	626.1937255859376	-1163.085205078125	-195.5549316406251	478.7725219726564	-1135.67431640625	-152.077392578125	485.4268188476564	-1016.537658691406	-198.5647735595704	311.1777343750001	-1023.703369140625	-217.9954376220704	263.4745788574219	-1094.116821289063	-207.1990966796876	258.7335815429688	-1047.630859375	-248.2024688720704	196.3252563476563	-1011.079711914063	-328.8013000488282	115.5575637817383	-1051.885986328125	-305.3567504882813	136.8898468017578	-964.5840454101565	-191.0585479736328	62.12924194335939	-978.118347167969	-188.9657135009766	59.98429107666017	-1022.892639160156	-237.2907714843751	45.05521774291993	-1068.462524414063	-291.6317749023438	752.8108520507814	-759.9253540039064	-226.8049774169922	738.4628295898439	-769.7510375976565	-206.3400573730469	760.0048217773439	-782.6523437500002	-192.4569854736329	662.2476196289064	-773.8018798828127	-89.06357574462892	562.1268310546876	-803.804382324219	-84.21048736572267	563.3010253906251	-926.8144531250002	12.12355041503907	479.2990722656251	-833.9378051757815	16.94652366638184	379.7956848144532	-787.0306396484377	48.76912307739259	403.0799865722657	-811.972595214844	77.8280487060547	367.9063110351563	-848.1209106445315	118.1675109863282	212.5953063964844	-813.5224609375002	116.5900268554688	229.6374511718751	-903.8056640625002	75.23341369628908	152.7853393554688	-853.9995117187502	266.2643127441407	222.3726196289063	-914.244812011719	273.4440917968751	233.8081054687501	-871.0274658203127	252.9188385009766	195.457015991211	-807.386901855469	
